<?xml version="1.0" encoding="UTF-8" standalone="no" ?>
<!DOCTYPE svg PUBLIC "-//W3C//DTD SVG 1.1//EN" "http://www.w3.org/Graphics/SVG/1.1/DTD/svg11.dtd">
<svg xmlns="http://www.w3.org/2000/svg" xmlns:xlink="http://www.w3.org/1999/xlink" version="1.1" width="1080" height="1080" viewBox="0 0 1080 1080" xml:space="preserve">
<desc>Created with Fabric.js 5.2.4</desc>
<defs>
</defs>
<g transform="matrix(1 0 0 1 540 540)" id="a38e33b2-b284-4e33-a98e-3aeca6148b2b"  >
<rect style="stroke: none; stroke-width: 1; stroke-dasharray: none; stroke-linecap: butt; stroke-dashoffset: 0; stroke-linejoin: miter; stroke-miterlimit: 4; fill: rgb(255,255,255); fill-rule: nonzero; opacity: 1; visibility: hidden;" vector-effect="non-scaling-stroke"  x="-540" y="-540" rx="0" ry="0" width="1080" height="1080" />
</g>
<g transform="matrix(1 0 0 1 540 540)" id="73ffc4c0-c8af-41ed-b862-d51633d3fa9d"  >
</g>
<g transform="matrix(0.13 0 0 -0.13 894.87 362.48)"  >
<path style="stroke: rgb(255,0,0); stroke-width: 1; stroke-dasharray: none; stroke-linecap: butt; stroke-dashoffset: 0; stroke-linejoin: miter; stroke-miterlimit: 4; fill: rgb(255,0,0); fill-rule: nonzero; opacity: 1;" vector-effect="non-scaling-stroke"  transform=" translate(-5567.5, -1745.85)" d="M 5481 1880 C 5438 1849 5400 1780 5400 1737 C 5401 1699 5437 1634 5472 1606 C 5491 1592 5510 1580 5515 1580 C 5525 1580 5511 1648 5495 1681 C 5482 1704 5483 1710 5501 1729 C 5512 1741 5533 1776 5547 1807 L 5573 1863 L 5600 1807 C 5615 1775 5635 1741 5645 1729 C 5663 1710 5663 1707 5642 1648 C 5630 1614 5622 1585 5625 1582 C 5635 1572 5683 1605 5709 1639 C 5731 1668 5735 1684 5735 1741 C 5735 1794 5730 1815 5714 1837 C 5655 1917 5557 1935 5481 1880 z" stroke-linecap="round" />
</g>
<g transform="matrix(0.13 0 0 -0.13 668.54 419.95)"  >
<path style="stroke: none; stroke-width: 1; stroke-dasharray: none; stroke-linecap: butt; stroke-dashoffset: 0; stroke-linejoin: miter; stroke-miterlimit: 4; fill: rgb(255,0,0); fill-rule: nonzero; opacity: 1;" vector-effect="non-scaling-stroke"  transform=" translate(-3870, -1314.88)" d="M 4437 1684 C 4240 1669 4211 1661 4156 1600 C 4111 1550 4100 1508 4100 1383 L 4100 1280 L 4249 1280 C 4331 1280 4405 1277 4414 1274 C 4437 1265 4437 1125 4414 1116 C 4394 1108 3292 1108 3263 1116 C 3242 1122 3240 1128 3238 1246 L 3235 1369 L 3148 1312 L 3060 1256 L 3060 1177 C 3060 1053 3114 966 3207 941 C 3261 926 4396 926 4455 941 C 4510 955 4585 1019 4599 1063 C 4604 1080 4611 1129 4614 1170 C 4622 1267 4603 1340 4558 1387 C 4503 1444 4477 1453 4347 1458 L 4228 1463 L 4234 1494 C 4247 1556 4262 1562 4447 1576 C 4539 1583 4630 1589 4648 1589 L 4680 1590 L 4680 1645 L 4680 1700 L 4648 1699 C 4630 1698 4535 1691 4437 1684 z" stroke-linecap="round" />
</g>
<g transform="matrix(0.13 0 0 -0.13 507.89 380.39)"  >
<path style="stroke: none; stroke-width: 1; stroke-dasharray: none; stroke-linecap: butt; stroke-dashoffset: 0; stroke-linejoin: miter; stroke-miterlimit: 4; fill: rgb(255,0,0); fill-rule: nonzero; opacity: 1;" vector-effect="non-scaling-stroke"  transform=" translate(-2665.15, -1611.59)" d="M 2617 1679 C 2568 1650 2573 1572 2625 1544 C 2666 1522 2703 1531 2733 1572 C 2783 1639 2692 1722 2617 1679 z" stroke-linecap="round" />
</g>
<g transform="matrix(0.13 0 0 -0.13 533.66 380.54)"  >
<path style="stroke: none; stroke-width: 1; stroke-dasharray: none; stroke-linecap: butt; stroke-dashoffset: 0; stroke-linejoin: miter; stroke-miterlimit: 4; fill: rgb(255,0,0); fill-rule: nonzero; opacity: 1;" vector-effect="non-scaling-stroke"  transform=" translate(-2858.39, -1610.45)" d="M 2800 1668 C 2772 1637 2773 1580 2803 1552 C 2860 1498 2952 1553 2935 1631 C 2922 1689 2841 1711 2800 1668 z" stroke-linecap="round" />
</g>
<g transform="matrix(0.13 0 0 -0.13 351.08 473.26)"  >
<path style="stroke: none; stroke-width: 1; stroke-dasharray: none; stroke-linecap: butt; stroke-dashoffset: 0; stroke-linejoin: miter; stroke-miterlimit: 4; fill: rgb(255,0,0); fill-rule: nonzero; opacity: 1;" vector-effect="non-scaling-stroke"  transform=" translate(-1533.45, -915)" d="M 2160 1390 L 2160 1110 L 1430 1110 L 700 1110 L 699 1270 C 698 1358 697 1436 696 1443 C 695 1459 475 1465 403 1449 C 297 1428 238 1347 234 1215 C 232 1171 231 1130 231 1124 C 230 1117 218 1109 203 1105 C 162 1095 110 1052 95 1016 C 85 992 81 885 78 572 C 76 345 77 160 79 160 C 81 160 123 183 171 211 L 260 262 L 260 580 C 260 755 263 905 266 914 C 272 928 393 930 1544 930 L 2815 930 L 2866 954 C 2967 1001 2990 1063 2990 1291 L 2990 1460 L 2863 1460 C 2705 1459 2659 1451 2612 1413 C 2553 1367 2530 1309 2527 1204 L 2525 1115 L 2433 1112 L 2340 1109 L 2340 1390 L 2340 1670 L 2250 1670 L 2160 1670 L 2160 1390 z M 510 1188 L 510 1109 L 463 1112 L 416 1115 L 417 1175 C 418 1208 419 1241 419 1248 C 420 1265 457 1278 487 1272 C 509 1268 510 1264 510 1188 z M 2810 1201 C 2810 1123 2801 1110 2748 1110 L 2710 1110 L 2710 1189 L 2710 1269 L 2753 1272 C 2776 1274 2798 1274 2803 1272 C 2807 1270 2810 1238 2810 1201 z" stroke-linecap="round" />
</g>
<g transform="matrix(0.13 0 0 -0.13 849.18 454.23)"  >
<path style="stroke: none; stroke-width: 1; stroke-dasharray: none; stroke-linecap: butt; stroke-dashoffset: 0; stroke-linejoin: miter; stroke-miterlimit: 4; fill: rgb(255,0,0); fill-rule: nonzero; opacity: 1;" vector-effect="non-scaling-stroke"  transform=" translate(-5224.8, -1057.79)" d="M 4933 1450 C 4856 1432 4801 1376 4779 1296 C 4760 1227 4771 1102 4801 1045 C 4838 971 4887 941 4983 932 L 5060 925 L 5040 892 C 5012 846 4951 820 4868 820 C 4798 820 4793 818 4810 797 C 4826 779 4900 677 4908 663 C 4914 654 4932 653 4985 661 C 5057 671 5118 696 5159 733 C 5190 762 5230 852 5230 894 L 5230 928 L 5383 931 C 5533 935 5536 936 5580 965 C 5611 986 5634 1012 5653 1049 C 5679 1102 5680 1107 5680 1282 L 5680 1460 L 5590 1460 L 5500 1460 L 5500 1296 C 5500 1169 5497 1130 5486 1121 C 5477 1113 5432 1110 5354 1112 L 5235 1115 L 5232 1288 L 5230 1460 L 5097 1459 C 5025 1458 4951 1455 4933 1450 z M 5050 1194 L 5050 1110 L 5012 1110 C 4991 1110 4969 1115 4962 1122 C 4948 1136 4946 1252 4960 1266 C 4965 1271 4988 1276 5010 1277 L 5050 1279 L 5050 1194 z" stroke-linecap="round" />
</g>
<g transform="matrix(0.13 0 0 -0.13 232.11 521.17)"  >
<path style="stroke: none; stroke-width: 1; stroke-dasharray: none; stroke-linecap: butt; stroke-dashoffset: 0; stroke-linejoin: miter; stroke-miterlimit: 4; fill: rgb(0,0,0); fill-rule: nonzero; opacity: 1;" vector-effect="non-scaling-stroke"  transform=" translate(-596.78, -555.73)" d="M 490 585 C 490 501 487 478 475 474 C 467 470 462 459 464 447 C 466 431 475 424 497 422 C 538 418 548 435 552 509 L 555 572 L 605 499 C 645 440 660 425 680 425 L 705 425 L 706 529 C 706 601 710 635 718 638 C 725 640 730 653 730 666 C 730 687 725 690 696 690 C 653 690 647 681 649 613 C 649 583 647 553 644 548 C 640 542 624 560 608 586 C 592 613 571 647 562 662 C 550 682 537 690 518 690 L 490 690 L 490 585 z" stroke-linecap="round" />
</g>
<g transform="matrix(0.13 0 0 -0.13 332.26 521.27)"  >
<path style="stroke: none; stroke-width: 1; stroke-dasharray: none; stroke-linecap: butt; stroke-dashoffset: 0; stroke-linejoin: miter; stroke-miterlimit: 4; fill: rgb(0,0,0); fill-rule: nonzero; opacity: 1;" vector-effect="non-scaling-stroke"  transform=" translate(-1347.94, -554.96)" d="M 1247 670 C 1244 657 1247 647 1256 643 C 1267 639 1270 614 1270 530 L 1270 421 L 1298 424 C 1322 426 1325 429 1324 463 C 1322 511 1340 511 1373 461 C 1392 433 1406 423 1424 423 C 1445 423 1450 427 1450 446 C 1450 459 1444 470 1437 470 C 1431 470 1419 483 1412 499 C 1400 526 1401 533 1425 569 L 1450 610 L 1421 610 C 1398 610 1387 603 1373 580 C 1346 534 1330 542 1329 603 C 1327 687 1328 685 1289 688 C 1259 691 1252 687 1247 670 z" stroke-linecap="round" />
</g>
<g transform="matrix(0.13 0 0 -0.13 440.64 521.24)"  >
<path style="stroke: none; stroke-width: 1; stroke-dasharray: none; stroke-linecap: butt; stroke-dashoffset: 0; stroke-linejoin: miter; stroke-miterlimit: 4; fill: rgb(0,0,0); fill-rule: nonzero; opacity: 1;" vector-effect="non-scaling-stroke"  transform=" translate(-2160.72, -555.19)" d="M 2085 670 C 2026 631 2006 561 2036 498 C 2067 434 2146 403 2211 430 C 2237 441 2243 441 2250 429 C 2257 418 2262 419 2279 434 C 2297 450 2297 454 2285 467 C 2272 479 2272 485 2285 510 C 2304 547 2304 574 2285 613 C 2251 684 2150 713 2085 670 z M 2212 612 C 2229 594 2233 580 2231 541 C 2230 521 2228 519 2215 530 C 2202 541 2197 540 2186 524 C 2177 512 2175 501 2181 494 C 2195 477 2165 468 2136 480 C 2105 491 2090 519 2090 564 C 2090 630 2164 659 2212 612 z" stroke-linecap="round" />
</g>
<g transform="matrix(0.13 0 0 -0.13 498.55 520.99)"  >
<path style="stroke: none; stroke-width: 1; stroke-dasharray: none; stroke-linecap: butt; stroke-dashoffset: 0; stroke-linejoin: miter; stroke-miterlimit: 4; fill: rgb(0,0,0); fill-rule: nonzero; opacity: 1;" vector-effect="non-scaling-stroke"  transform=" translate(-2595.07, -557.05)" d="M 2540 671 C 2540 661 2547 647 2555 640 C 2566 630 2570 604 2570 530 C 2570 426 2572 421 2620 425 C 2647 427 2661 457 2640 470 C 2633 474 2629 509 2629 565 C 2629 672 2621 690 2575 690 C 2547 690 2540 686 2540 671 z" stroke-linecap="round" />
</g>
<g transform="matrix(0.13 0 0 -0.13 616.71 520.76)"  >
<path style="stroke: none; stroke-width: 0; stroke-dasharray: none; stroke-linecap: butt; stroke-dashoffset: 0; stroke-linejoin: miter; stroke-miterlimit: 4; fill: rgb(0,0,0); fill-rule: nonzero; opacity: 1;" vector-effect="non-scaling-stroke"  transform=" translate(-3485, -555)" d="M 3386 683 C 3383 679 3380 623 3380 558 C 3380 486 3376 440 3370 440 C 3365 440 3360 435 3360 429 C 3360 423 3370 420 3383 422 C 3404 425 3405 429 3405 528 C 3405 584 3408 630 3411 630 C 3414 630 3449 583 3490 525 C 3531 467 3570 420 3577 420 C 3587 420 3590 448 3590 540 C 3590 613 3594 660 3600 660 C 3606 660 3610 667 3610 675 C 3610 683 3604 690 3598 690 C 3567 689 3561 672 3558 576 L 3555 478 L 3485 578 C 3417 676 3399 695 3386 683 z" stroke-linecap="round" />
</g>
<g transform="matrix(0.13 0 0 -0.13 267.85 525.95)"  >
<path style="stroke: none; stroke-width: 1; stroke-dasharray: none; stroke-linecap: butt; stroke-dashoffset: 0; stroke-linejoin: miter; stroke-miterlimit: 4; fill: rgb(0,0,0); fill-rule: nonzero; opacity: 1;" vector-effect="non-scaling-stroke"  transform=" translate(-864.81, -519.85)" d="M 813 605 C 773 588 758 560 762 507 C 764 473 771 462 799 443 C 841 415 883 414 926 441 C 986 477 981 561 918 600 C 880 623 857 624 813 605 z M 904 537 C 918 498 902 475 859 475 C 828 475 825 478 822 508 C 818 549 836 572 869 568 C 887 566 898 556 904 537 z" stroke-linecap="round" />
</g>
<g transform="matrix(0.13 0 0 -0.13 383.31 525.76)"  >
<path style="stroke: none; stroke-width: 1; stroke-dasharray: none; stroke-linecap: butt; stroke-dashoffset: 0; stroke-linejoin: miter; stroke-miterlimit: 4; fill: rgb(0,0,0); fill-rule: nonzero; opacity: 1;" vector-effect="non-scaling-stroke"  transform=" translate(-1730.75, -521.28)" d="M 1689 605 C 1625 571 1626 470 1690 436 C 1743 408 1828 427 1814 463 C 1809 476 1800 479 1769 474 C 1744 470 1725 472 1715 480 C 1688 502 1699 510 1760 510 C 1820 510 1820 510 1820 540 C 1820 578 1779 620 1742 620 C 1727 619 1703 613 1689 605 z M 1763 555 C 1764 550 1750 544 1733 542 C 1706 539 1701 542 1706 555 C 1713 572 1759 572 1763 555 z" stroke-linecap="round" />
</g>
<g transform="matrix(0.13 0 0 -0.13 475.97 526.13)"  >
<path style="stroke: none; stroke-width: 1; stroke-dasharray: none; stroke-linecap: butt; stroke-dashoffset: 0; stroke-linejoin: miter; stroke-miterlimit: 4; fill: rgb(0,0,0); fill-rule: nonzero; opacity: 1;" vector-effect="non-scaling-stroke"  transform=" translate(-2425.77, -518.51)" d="M 2370 613 C 2352 606 2340 590 2340 573 C 2340 558 2378 556 2399 569 C 2416 580 2440 572 2440 556 C 2440 549 2419 539 2393 534 C 2354 527 2344 520 2336 497 C 2324 463 2336 439 2374 425 C 2393 419 2407 419 2421 428 C 2435 437 2446 437 2460 430 C 2494 412 2520 418 2520 444 C 2520 458 2516 472 2510 475 C 2505 478 2500 503 2500 529 C 2500 564 2495 582 2481 594 C 2461 613 2395 624 2370 613 z M 2440 496 C 2440 478 2413 457 2400 465 C 2386 474 2387 497 2403 503 C 2426 513 2440 510 2440 496 z" stroke-linecap="round" />
</g>
<g transform="matrix(0.13 0 0 -0.13 521.78 525.99)"  >
<path style="stroke: none; stroke-width: 1; stroke-dasharray: none; stroke-linecap: butt; stroke-dashoffset: 0; stroke-linejoin: miter; stroke-miterlimit: 4; fill: rgb(0,0,0); fill-rule: nonzero; opacity: 1;" vector-effect="non-scaling-stroke"  transform=" translate(-2769.31, -519.54)" d="M 2708 610 C 2681 594 2685 560 2713 560 C 2725 560 2741 564 2749 569 C 2767 580 2790 572 2790 555 C 2790 548 2772 540 2749 537 C 2705 531 2670 506 2670 480 C 2670 471 2681 453 2694 440 C 2713 423 2725 419 2747 424 C 2778 432 2790 432 2835 428 C 2860 426 2866 429 2868 448 C 2870 460 2867 470 2862 470 C 2857 470 2850 495 2848 526 C 2845 557 2837 588 2828 597 C 2808 616 2731 624 2708 610 z M 2785 500 C 2792 489 2774 460 2761 460 C 2758 460 2748 465 2740 470 C 2727 479 2728 482 2744 495 C 2767 513 2777 514 2785 500 z" stroke-linecap="round" />
</g>
<g transform="matrix(0.13 0 0 -0.13 560.54 525.94)"  >
<path style="stroke: none; stroke-width: 1; stroke-dasharray: none; stroke-linecap: butt; stroke-dashoffset: 0; stroke-linejoin: miter; stroke-miterlimit: 4; fill: rgb(0,0,0); fill-rule: nonzero; opacity: 1;" vector-effect="non-scaling-stroke"  transform=" translate(-3060, -519.96)" d="M 3001 604 C 2984 592 2975 591 2967 599 C 2961 605 2941 610 2923 610 C 2897 610 2890 606 2890 590 C 2890 579 2894 570 2900 570 C 2905 570 2910 538 2912 499 C 2915 429 2916 427 2943 424 C 2970 421 2970 422 2970 479 C 2970 537 2979 555 3010 562 C 3022 564 3026 550 3030 495 C 3035 429 3036 425 3060 425 C 3083 425 3085 429 3088 482 C 3090 521 3096 543 3110 555 C 3139 581 3150 565 3150 496 C 3150 433 3150 432 3181 426 C 3228 417 3230 418 3230 445 C 3230 459 3226 470 3220 470 C 3215 470 3210 495 3210 525 C 3210 568 3205 583 3188 600 C 3162 624 3142 625 3112 604 C 3092 590 3088 590 3068 604 C 3040 624 3030 624 3001 604 z" stroke-linecap="round" />
</g>
<g transform="matrix(0.13 0 0 -0.13 649.72 526.04)"  >
<path style="stroke: none; stroke-width: 1; stroke-dasharray: none; stroke-linecap: butt; stroke-dashoffset: 0; stroke-linejoin: miter; stroke-miterlimit: 4; fill: rgb(0,0,0); fill-rule: nonzero; opacity: 1;" vector-effect="non-scaling-stroke"  transform=" translate(-3728.87, -519.17)" d="M 3715 613 C 3683 605 3651 569 3644 535 C 3637 498 3660 446 3689 430 C 3719 415 3786 418 3800 435 C 3817 456 3806 464 3780 450 C 3748 433 3709 442 3687 472 C 3675 487 3669 502 3672 505 C 3675 508 3708 512 3746 513 L 3815 516 L 3813 545 C 3812 563 3800 584 3785 598 C 3759 620 3752 622 3715 613 z M 3784 568 C 3799 543 3789 539 3726 542 L 3669 545 L 3686 568 C 3698 586 3710 590 3737 588 C 3757 586 3778 578 3784 568 z" stroke-linecap="round" />
</g>
<g transform="matrix(0.13 0 0 -0.13 717.31 526.24)"  >
<path style="stroke: none; stroke-width: 1; stroke-dasharray: none; stroke-linecap: butt; stroke-dashoffset: 0; stroke-linejoin: miter; stroke-miterlimit: 4; fill: rgb(0,0,0); fill-rule: nonzero; opacity: 1;" vector-effect="non-scaling-stroke"  transform=" translate(-4235.78, -517.69)" d="M 4200 607 C 4182 598 4175 586 4175 565 C 4175 540 4182 532 4217 515 C 4271 489 4282 477 4274 457 C 4267 438 4229 435 4198 451 C 4173 464 4163 456 4180 435 C 4194 418 4252 415 4281 430 C 4293 437 4300 451 4300 470 C 4300 496 4293 503 4250 525 C 4215 543 4200 556 4200 570 C 4200 586 4207 590 4235 590 C 4254 590 4270 586 4270 580 C 4270 575 4277 570 4285 570 C 4303 570 4304 584 4287 598 C 4265 616 4226 621 4200 607 z" stroke-linecap="round" />
</g>
<g transform="matrix(0.13 0 0 -0.13 300.51 526.44)"  >
<path style="stroke: none; stroke-width: 1; stroke-dasharray: none; stroke-linecap: butt; stroke-dashoffset: 0; stroke-linejoin: miter; stroke-miterlimit: 4; fill: rgb(0,0,0); fill-rule: nonzero; opacity: 1;" vector-effect="non-scaling-stroke"  transform=" translate(-1109.81, -516.15)" d="M 990 591 C 990 581 997 570 1005 566 C 1016 562 1020 545 1020 507 C 1020 441 1043 413 1087 425 C 1122 433 1149 434 1178 427 C 1191 424 1207 423 1215 427 C 1235 434 1234 466 1215 474 C 1204 478 1200 496 1200 545 L 1200 610 L 1170 610 C 1141 610 1141 609 1138 549 C 1136 504 1130 484 1118 476 C 1091 460 1076 483 1074 543 C 1073 571 1072 598 1071 603 C 1071 607 1052 610 1030 610 C 997 610 990 606 990 591 z" stroke-linecap="round" />
</g>
<g transform="matrix(0.13 0 0 -0.13 685.21 526.66)"  >
<path style="stroke: none; stroke-width: 1; stroke-dasharray: none; stroke-linecap: butt; stroke-dashoffset: 0; stroke-linejoin: miter; stroke-miterlimit: 4; fill: rgb(0,0,0); fill-rule: nonzero; opacity: 1;" vector-effect="non-scaling-stroke"  transform=" translate(-3995, -514.51)" d="M 3840 600 C 3840 595 3843 590 3848 590 C 3852 590 3868 552 3884 505 C 3920 398 3934 397 3968 500 L 3993 575 L 4017 510 C 4030 474 4043 439 4045 433 C 4056 400 4078 426 4104 505 C 4119 552 4135 590 4141 590 C 4146 590 4150 595 4150 600 C 4150 606 4141 610 4130 610 C 4115 610 4106 595 4088 535 C 4075 494 4063 460 4060 460 C 4057 460 4044 494 4032 535 C 4003 633 3988 633 3958 535 C 3945 494 3932 460 3929 460 C 3926 460 3915 488 3905 523 C 3895 557 3882 591 3877 598 C 3866 612 3840 614 3840 600 z" stroke-linecap="round" />
</g>
<g transform="matrix(0.13 0 0 -0.13 358.54 524.62)"  >
<path style="stroke: none; stroke-width: 1; stroke-dasharray: none; stroke-linecap: butt; stroke-dashoffset: 0; stroke-linejoin: miter; stroke-miterlimit: 4; fill: rgb(0,0,0); fill-rule: nonzero; opacity: 1;" vector-effect="non-scaling-stroke"  transform=" translate(-1545, -529.79)" d="M 1494 551 C 1492 549 1490 539 1490 529 C 1490 517 1500 511 1523 509 C 1575 503 1600 510 1600 530 C 1600 545 1591 549 1549 552 C 1521 553 1496 553 1494 551 z" stroke-linecap="round" />
</g>
<g transform="matrix(0.13 0 0 -0.13 408.73 525)"  >
<path style="stroke: none; stroke-width: 1; stroke-dasharray: none; stroke-linecap: butt; stroke-dashoffset: 0; stroke-linejoin: miter; stroke-miterlimit: 4; fill: rgb(0,0,0); fill-rule: nonzero; opacity: 1;" vector-effect="non-scaling-stroke"  transform=" translate(-1921.45, -526.97)" d="M 1893 552 C 1869 550 1862 544 1863 529 C 1866 491 1980 491 1980 529 C 1980 549 1950 557 1893 552 z" stroke-linecap="round" />
</g>
</svg>